<svg width="54" height="10" viewBox="0 0 54 10" fill="none" xmlns="http://www.w3.org/2000/svg">
<path d="M3.97 8.15C5.6 8.15 6.72 7.2 7.1 5.87L6.23 5.55C5.94 6.52 5.18 7.25 3.97 7.25C2.68 7.25 1.45 6.3 1.45 4.45C1.45 2.6 2.68 1.66 3.97 1.66C5.13 1.66 5.91 2.26 6.18 3.33L7.09 3.01C6.73 1.64 5.59 0.76 3.97 0.76C2.21 0.76 0.45 2.08 0.45 4.45C0.45 6.82 2.14 8.15 3.97 8.15ZM10.1647 7.31C9.36469 7.31 8.66469 6.71 8.66469 5.59C8.66469 4.48 9.36469 3.88 10.1647 3.88C10.9647 3.88 11.6647 4.48 11.6647 5.59C11.6647 6.71 10.9647 7.31 10.1647 7.31ZM10.1647 3.04C8.72469 3.04 7.70469 4.13 7.70469 5.59C7.70469 7.06 8.72469 8.15 10.1647 8.15C11.6047 8.15 12.6247 7.06 12.6247 5.59C12.6247 4.13 11.6047 3.04 10.1647 3.04ZM14.3873 5.58C14.3873 4.59 14.9473 3.89 15.8073 3.89C16.6673 3.89 17.1873 4.57 17.1873 5.56C17.1873 6.55 16.6573 7.3 15.7973 7.3C14.8973 7.3 14.3873 6.57 14.3873 5.58ZM17.1973 7.35C17.1973 7.64 17.2273 7.89 17.2473 8H18.1573C18.1473 7.92 18.1073 7.57 18.1073 7.11V0.76H17.1773V3.87C17.0173 3.48 16.5573 3.06 15.7073 3.06C14.3473 3.06 13.4273 4.22 13.4273 5.58C13.4273 7.01 14.2973 8.13 15.7073 8.13C16.4573 8.13 16.9673 7.73 17.1973 7.27V7.35ZM20.9063 10.01L24.0363 3.19H23.0263L21.5863 6.51L20.0863 3.19H19.0063L21.0763 7.47L19.8763 10.01H20.9063ZM28.5206 8V5.02H31.5406V4.1H28.5206V1.82H31.8506V0.909999H27.5406V8H28.5206ZM33.8296 8V3.19H32.8996V8H33.8296ZM32.6896 1.37C32.6896 1.74 32.9896 2.04 33.3596 2.04C33.7396 2.04 34.0396 1.74 34.0396 1.37C34.0396 0.99 33.7396 0.69 33.3596 0.69C32.9896 0.69 32.6896 0.99 32.6896 1.37ZM34.9789 6.75C35.0589 7.3 35.6189 8.15 36.9389 8.15C38.1289 8.15 38.6989 7.34 38.6989 6.66C38.6989 5.95 38.2389 5.42 37.3689 5.23L36.5889 5.06C36.2189 4.98 36.0389 4.77 36.0389 4.48C36.0389 4.15 36.3589 3.84 36.8389 3.84C37.5989 3.84 37.7989 4.39 37.8389 4.64L38.6689 4.33C38.5689 3.9 38.1589 3.04 36.8389 3.04C35.8989 3.04 35.1289 3.74 35.1289 4.56C35.1289 5.24 35.5789 5.75 36.3289 5.91L37.1489 6.09C37.5489 6.18 37.7689 6.41 37.7689 6.71C37.7689 7.05 37.4789 7.35 36.9489 7.35C36.2689 7.35 35.8889 6.95 35.8289 6.45L34.9789 6.75ZM40.8904 5.17C40.9104 4.46 41.2904 3.9 42.0104 3.9C42.8504 3.9 43.1304 4.44 43.1304 5.11V8H44.0704V4.95C44.0704 3.88 43.5004 3.05 42.3504 3.05C41.8004 3.05 41.2404 3.24 40.8904 3.75V0.76H39.9504V8H40.8904V5.17ZM46.1756 5.1C46.2156 4.48 46.6956 3.87 47.4856 3.87C48.3356 3.87 48.7856 4.41 48.8056 5.1H46.1756ZM48.9456 6.35C48.7656 6.89 48.3756 7.32 47.5956 7.32C46.7856 7.32 46.1656 6.72 46.1456 5.86H49.7656C49.7756 5.8 49.7856 5.68 49.7856 5.56C49.7856 4.06 48.9556 3.04 47.4756 3.04C46.2656 3.04 45.1756 4.07 45.1756 5.58C45.1756 7.21 46.3056 8.15 47.5956 8.15C48.7156 8.15 49.4856 7.48 49.7556 6.63L48.9456 6.35ZM53.6555 3.14C53.6055 3.13 53.4755 3.11 53.3455 3.11C52.8555 3.11 52.2555 3.29 51.9055 4.03V3.19H50.9855V8H51.9255V5.59C51.9255 4.53 52.4555 4.11 53.2455 4.11C53.3755 4.11 53.5155 4.12 53.6555 4.14V3.14Z" fill="white"/>
</svg>
