<svg width="176" height="28" viewBox="0 0 176 28" fill="none" xmlns="http://www.w3.org/2000/svg">
<path fill-rule="evenodd" clip-rule="evenodd" d="M15.75 11.375L12.75 13.25V9.5L15.75 11.375ZM23.25 11.75H18V12.5H23.25V11.75ZM23.25 14.75V15.5H12.75V14.75H23.25ZM23.25 18.5V17.75H12.75V18.5H23.25Z" fill="#B2B2B2"/>
<path d="M34.2508 17H41.7508C42.1632 17 42.5008 16.6625 42.5008 16.25V10.25C42.5008 9.8375 42.1632 9.5 41.7508 9.5H34.2508C33.8382 9.5 33.5007 9.8375 33.5007 10.25V16.25C33.5007 16.6625 33.8382 17 34.2508 17ZM34.2508 10.25H41.7508V16.25H34.2508V10.25ZM43.6258 18.5H32.375C32.1687 18.5 32 18.6687 32 18.875C32 19.0813 32.1687 19.25 32.375 19.25H43.6258C43.832 19.25 44.0007 19.0813 44.0007 18.875C44.0007 18.6687 43.832 18.5 43.6258 18.5Z" fill="#B2B2B2"/>
<path d="M61.7915 8.75L61.2984 9.32713C62.4912 10.433 63.2423 12.0078 63.2423 13.7581C63.2423 15.5084 62.4904 17.0832 61.2984 18.1891L61.7908 18.7662C62.4868 18.1308 63.0427 17.3573 63.4231 16.495C63.8034 15.6328 63.9999 14.7007 64 13.7583C64.0001 12.8158 63.8037 11.8837 63.4235 11.0214C63.0432 10.1591 62.4874 9.38553 61.7915 8.75ZM60.073 10.762L59.5806 11.3391C59.9018 11.6549 60.157 12.0314 60.3311 12.4469C60.5053 12.8623 60.5949 13.3082 60.5949 13.7586C60.5948 14.2091 60.505 14.655 60.3307 15.0703C60.1565 15.4857 59.9012 15.8622 59.5798 16.1778L60.0723 16.7549C60.8589 15.9985 61.3513 14.9366 61.3513 13.7589C61.3513 12.5811 60.8597 11.5184 60.073 10.762ZM52 11.4889V16.0273H54.1209L58.0512 18.2965V9.21972L54.1209 11.4889H52ZM57.2948 10.5298V16.9864L54.3236 15.2709H52.7564V12.2453H54.3236L57.2948 10.5298Z" fill="#B2B2B2"/>
<path d="M156.548 15.6718L154.734 17.4853L153.5 16.25V19.25H156.5L155.265 18.0155L157.078 16.202L156.548 15.6718ZM160.25 9.5L161.485 10.7352L159.672 12.5487L160.202 13.079L162.016 11.2655L163.25 12.5V9.5H160.25Z" fill="#B2B2B2"/>
<rect x="72" y="12" width="72" height="4" rx="2" fill="#777777"/>
<rect x="72" y="12" width="64" height="4" rx="2" fill="#B2B2B2"/>
<path d="M84.2 14.484C84.2 14.788 84.452 15.06 84.844 15.06C85.188 15.06 85.38 14.876 85.464 14.74C85.464 14.88 85.476 14.952 85.484 15H85.852C85.844 14.952 85.828 14.852 85.828 14.684V13.72C85.828 13.344 85.604 13.016 85.028 13.016C84.612 13.016 84.28 13.272 84.24 13.64L84.6 13.724C84.624 13.5 84.772 13.336 85.036 13.336C85.328 13.336 85.452 13.492 85.452 13.68C85.452 13.748 85.42 13.808 85.304 13.824L84.784 13.9C84.452 13.948 84.2 14.14 84.2 14.484ZM84.896 14.744C84.704 14.744 84.584 14.608 84.584 14.464C84.584 14.292 84.704 14.2 84.864 14.176L85.452 14.088V14.176C85.452 14.596 85.204 14.744 84.896 14.744ZM86.5338 14.484C86.5338 14.788 86.7858 15.06 87.1778 15.06C87.5218 15.06 87.7138 14.876 87.7978 14.74C87.7978 14.88 87.8098 14.952 87.8178 15H88.1858C88.1778 14.952 88.1618 14.852 88.1618 14.684V13.72C88.1618 13.344 87.9378 13.016 87.3618 13.016C86.9458 13.016 86.6138 13.272 86.5738 13.64L86.9338 13.724C86.9578 13.5 87.1058 13.336 87.3698 13.336C87.6618 13.336 87.7858 13.492 87.7858 13.68C87.7858 13.748 87.7538 13.808 87.6378 13.824L87.1178 13.9C86.7858 13.948 86.5338 14.14 86.5338 14.484ZM87.2298 14.744C87.0378 14.744 86.9178 14.608 86.9178 14.464C86.9178 14.292 87.0378 14.2 87.1978 14.176L87.7858 14.088V14.176C87.7858 14.596 87.5378 14.744 87.2298 14.744ZM88.8075 14.5C88.8395 14.72 89.0635 15.06 89.5915 15.06C90.0675 15.06 90.2955 14.736 90.2955 14.464C90.2955 14.18 90.1115 13.968 89.7635 13.892L89.4515 13.824C89.3035 13.792 89.2315 13.708 89.2315 13.592C89.2315 13.46 89.3595 13.336 89.5515 13.336C89.8555 13.336 89.9355 13.556 89.9515 13.656L90.2835 13.532C90.2435 13.36 90.0795 13.016 89.5515 13.016C89.1755 13.016 88.8675 13.296 88.8675 13.624C88.8675 13.896 89.0475 14.1 89.3475 14.164L89.6755 14.236C89.8355 14.272 89.9235 14.364 89.9235 14.484C89.9235 14.62 89.8075 14.74 89.5955 14.74C89.3235 14.74 89.1715 14.58 89.1475 14.38L88.8075 14.5ZM91.2406 14.032C91.2406 13.636 91.4646 13.356 91.8086 13.356C92.1526 13.356 92.3606 13.628 92.3606 14.024C92.3606 14.42 92.1486 14.72 91.8046 14.72C91.4446 14.72 91.2406 14.428 91.2406 14.032ZM92.3646 14.74C92.3646 14.856 92.3766 14.956 92.3846 15H92.7486C92.7446 14.968 92.7286 14.828 92.7286 14.644V12.104H92.3566V13.348C92.2926 13.192 92.1086 13.024 91.7686 13.024C91.2246 13.024 90.8566 13.488 90.8566 14.032C90.8566 14.604 91.2046 15.052 91.7686 15.052C92.0686 15.052 92.2726 14.892 92.3646 14.708V14.74ZM93.4881 14.484C93.4881 14.788 93.7401 15.06 94.1321 15.06C94.4761 15.06 94.6681 14.876 94.7521 14.74C94.7521 14.88 94.7641 14.952 94.7721 15H95.1401C95.1321 14.952 95.1161 14.852 95.1161 14.684V13.72C95.1161 13.344 94.8921 13.016 94.3161 13.016C93.9001 13.016 93.5681 13.272 93.5281 13.64L93.8881 13.724C93.9121 13.5 94.0601 13.336 94.3241 13.336C94.6161 13.336 94.7401 13.492 94.7401 13.68C94.7401 13.748 94.7081 13.808 94.5921 13.824L94.0721 13.9C93.7401 13.948 93.4881 14.14 93.4881 14.484ZM94.1841 14.744C93.9921 14.744 93.8721 14.608 93.8721 14.464C93.8721 14.292 93.9921 14.2 94.1521 14.176L94.7401 14.088V14.176C94.7401 14.596 94.4921 14.744 94.1841 14.744ZM96.1659 14.032C96.1659 13.636 96.3899 13.356 96.7339 13.356C97.0779 13.356 97.2859 13.628 97.2859 14.024C97.2859 14.42 97.0739 14.72 96.7299 14.72C96.3699 14.72 96.1659 14.428 96.1659 14.032ZM97.2899 14.74C97.2899 14.856 97.3019 14.956 97.3099 15H97.6739C97.6699 14.968 97.6539 14.828 97.6539 14.644V12.104H97.2819V13.348C97.2179 13.192 97.0339 13.024 96.6939 13.024C96.1499 13.024 95.7819 13.488 95.7819 14.032C95.7819 14.604 96.1299 15.052 96.6939 15.052C96.9939 15.052 97.1979 14.892 97.2899 14.708V14.74ZM98.3534 14.5C98.3854 14.72 98.6094 15.06 99.1374 15.06C99.6134 15.06 99.8414 14.736 99.8414 14.464C99.8414 14.18 99.6574 13.968 99.3094 13.892L98.9974 13.824C98.8494 13.792 98.7774 13.708 98.7774 13.592C98.7774 13.46 98.9054 13.336 99.0974 13.336C99.4014 13.336 99.4814 13.556 99.4974 13.656L99.8294 13.532C99.7894 13.36 99.6254 13.016 99.0974 13.016C98.7214 13.016 98.4134 13.296 98.4134 13.624C98.4134 13.896 98.5934 14.1 98.8934 14.164L99.2214 14.236C99.3814 14.272 99.4694 14.364 99.4694 14.484C99.4694 14.62 99.3534 14.74 99.1414 14.74C98.8694 14.74 98.7174 14.58 98.6934 14.38L98.3534 14.5ZM100.423 14.484C100.423 14.788 100.675 15.06 101.067 15.06C101.411 15.06 101.603 14.876 101.687 14.74C101.687 14.88 101.699 14.952 101.707 15H102.075C102.067 14.952 102.051 14.852 102.051 14.684V13.72C102.051 13.344 101.827 13.016 101.251 13.016C100.835 13.016 100.503 13.272 100.463 13.64L100.823 13.724C100.847 13.5 100.995 13.336 101.259 13.336C101.551 13.336 101.675 13.492 101.675 13.68C101.675 13.748 101.643 13.808 101.527 13.824L101.007 13.9C100.675 13.948 100.423 14.14 100.423 14.484ZM101.119 14.744C100.927 14.744 100.807 14.608 100.807 14.464C100.807 14.292 100.927 14.2 101.087 14.176L101.675 14.088V14.176C101.675 14.596 101.427 14.744 101.119 14.744ZM103.101 14.032C103.101 13.636 103.325 13.356 103.669 13.356C104.013 13.356 104.221 13.628 104.221 14.024C104.221 14.42 104.009 14.72 103.665 14.72C103.305 14.72 103.101 14.428 103.101 14.032ZM104.225 14.74C104.225 14.856 104.237 14.956 104.245 15H104.609C104.605 14.968 104.589 14.828 104.589 14.644V12.104H104.217V13.348C104.153 13.192 103.969 13.024 103.629 13.024C103.085 13.024 102.717 13.488 102.717 14.032C102.717 14.604 103.065 15.052 103.629 15.052C103.929 15.052 104.133 14.892 104.225 14.708V14.74ZM105.288 14.5C105.32 14.72 105.544 15.06 106.072 15.06C106.548 15.06 106.776 14.736 106.776 14.464C106.776 14.18 106.592 13.968 106.244 13.892L105.932 13.824C105.784 13.792 105.712 13.708 105.712 13.592C105.712 13.46 105.84 13.336 106.032 13.336C106.336 13.336 106.416 13.556 106.432 13.656L106.764 13.532C106.724 13.36 106.56 13.016 106.032 13.016C105.656 13.016 105.348 13.296 105.348 13.624C105.348 13.896 105.528 14.1 105.828 14.164L106.156 14.236C106.316 14.272 106.404 14.364 106.404 14.484C106.404 14.62 106.288 14.74 106.076 14.74C105.804 14.74 105.652 14.58 105.628 14.38L105.288 14.5ZM107.721 14.032C107.721 13.636 107.945 13.356 108.289 13.356C108.633 13.356 108.841 13.628 108.841 14.024C108.841 14.42 108.629 14.72 108.285 14.72C107.925 14.72 107.721 14.428 107.721 14.032ZM108.845 14.74C108.845 14.856 108.857 14.956 108.865 15H109.229C109.225 14.968 109.209 14.828 109.209 14.644V12.104H108.837V13.348C108.773 13.192 108.589 13.024 108.249 13.024C107.705 13.024 107.337 13.488 107.337 14.032C107.337 14.604 107.685 15.052 108.249 15.052C108.549 15.052 108.753 14.892 108.845 14.708V14.74ZM109.909 14.5C109.941 14.72 110.165 15.06 110.693 15.06C111.169 15.06 111.397 14.736 111.397 14.464C111.397 14.18 111.213 13.968 110.865 13.892L110.553 13.824C110.405 13.792 110.333 13.708 110.333 13.592C110.333 13.46 110.461 13.336 110.653 13.336C110.957 13.336 111.037 13.556 111.053 13.656L111.385 13.532C111.345 13.36 111.181 13.016 110.653 13.016C110.277 13.016 109.969 13.296 109.969 13.624C109.969 13.896 110.149 14.1 110.449 14.164L110.777 14.236C110.937 14.272 111.025 14.364 111.025 14.484C111.025 14.62 110.909 14.74 110.697 14.74C110.425 14.74 110.273 14.58 110.249 14.38L109.909 14.5ZM111.978 14.484C111.978 14.788 112.23 15.06 112.622 15.06C112.966 15.06 113.158 14.876 113.242 14.74C113.242 14.88 113.254 14.952 113.262 15H113.63C113.622 14.952 113.606 14.852 113.606 14.684V13.72C113.606 13.344 113.382 13.016 112.806 13.016C112.39 13.016 112.058 13.272 112.018 13.64L112.378 13.724C112.402 13.5 112.55 13.336 112.814 13.336C113.106 13.336 113.23 13.492 113.23 13.68C113.23 13.748 113.198 13.808 113.082 13.824L112.562 13.9C112.23 13.948 111.978 14.14 111.978 14.484ZM112.674 14.744C112.482 14.744 112.362 14.608 112.362 14.464C112.362 14.292 112.482 14.2 112.642 14.176L113.23 14.088V14.176C113.23 14.596 112.982 14.744 112.674 14.744ZM114.656 14.032C114.656 13.636 114.88 13.356 115.224 13.356C115.568 13.356 115.776 13.628 115.776 14.024C115.776 14.42 115.564 14.72 115.22 14.72C114.86 14.72 114.656 14.428 114.656 14.032ZM115.78 14.74C115.78 14.856 115.792 14.956 115.8 15H116.164C116.16 14.968 116.144 14.828 116.144 14.644V12.104H115.772V13.348C115.708 13.192 115.524 13.024 115.184 13.024C114.64 13.024 114.272 13.488 114.272 14.032C114.272 14.604 114.62 15.052 115.184 15.052C115.484 15.052 115.688 14.892 115.78 14.708V14.74ZM116.904 14.484C116.904 14.788 117.156 15.06 117.548 15.06C117.892 15.06 118.084 14.876 118.168 14.74C118.168 14.88 118.18 14.952 118.188 15H118.556C118.548 14.952 118.532 14.852 118.532 14.684V13.72C118.532 13.344 118.308 13.016 117.732 13.016C117.316 13.016 116.984 13.272 116.944 13.64L117.304 13.724C117.328 13.5 117.476 13.336 117.74 13.336C118.032 13.336 118.156 13.492 118.156 13.68C118.156 13.748 118.124 13.808 118.008 13.824L117.488 13.9C117.156 13.948 116.904 14.14 116.904 14.484ZM117.6 14.744C117.408 14.744 117.288 14.608 117.288 14.464C117.288 14.292 117.408 14.2 117.568 14.176L118.156 14.088V14.176C118.156 14.596 117.908 14.744 117.6 14.744ZM119.581 14.032C119.581 13.636 119.805 13.356 120.149 13.356C120.493 13.356 120.701 13.628 120.701 14.024C120.701 14.42 120.489 14.72 120.145 14.72C119.785 14.72 119.581 14.428 119.581 14.032ZM120.705 14.74C120.705 14.856 120.717 14.956 120.725 15H121.089C121.085 14.968 121.069 14.828 121.069 14.644V12.104H120.697V13.348C120.633 13.192 120.449 13.024 120.109 13.024C119.565 13.024 119.197 13.488 119.197 14.032C119.197 14.604 119.545 15.052 120.109 15.052C120.409 15.052 120.613 14.892 120.705 14.708V14.74ZM121.829 14.484C121.829 14.788 122.081 15.06 122.473 15.06C122.817 15.06 123.009 14.876 123.093 14.74C123.093 14.88 123.105 14.952 123.113 15H123.481C123.473 14.952 123.457 14.852 123.457 14.684V13.72C123.457 13.344 123.233 13.016 122.657 13.016C122.241 13.016 121.909 13.272 121.869 13.64L122.229 13.724C122.253 13.5 122.401 13.336 122.665 13.336C122.957 13.336 123.081 13.492 123.081 13.68C123.081 13.748 123.049 13.808 122.933 13.824L122.413 13.9C122.081 13.948 121.829 14.14 121.829 14.484ZM122.525 14.744C122.333 14.744 122.213 14.608 122.213 14.464C122.213 14.292 122.333 14.2 122.493 14.176L123.081 14.088V14.176C123.081 14.596 122.833 14.744 122.525 14.744Z" fill="#B2B2B2"/>
</svg>
