<svg width="140" height="28" viewBox="0 0 140 28" fill="none" xmlns="http://www.w3.org/2000/svg">
<path d="M4.45205 12.6273L5.12329 11.8636C4.06849 10.6227 2.53425 9.95455 1 9.95455V10.9091C2.24658 10.9091 3.49315 11.4818 4.35616 12.4364L4.45205 12.6273ZM11.6438 17.1136C10.4932 17.1136 9.43836 16.6364 8.57534 15.8727L8 16.6364C8.9589 17.5909 10.3014 18.0682 11.6438 18.0682V19.5L15 17.5909L11.6438 15.6818V17.1136ZM11.6438 11.3864V12.8182L15 10.9091L11.6438 9V10.4318C10.1096 10.4318 8.57534 11.1 7.61644 12.3409L4.35616 16.0636C3.49315 17.0182 2.24658 17.5909 1 17.5909V18.5455C2.53425 18.5455 4.06849 17.8773 5.0274 16.6364L8.28767 12.9136C9.15068 11.9591 10.3973 11.3864 11.6438 11.3864Z" fill="#1DB954"/>
<path d="M41 9L33 13.619V9.5H31V19.5H33V15.381L41 20V9Z" fill="#B2B2B2"/>
<circle cx="70" cy="14" r="14" fill="white"/>
<path d="M66.5 19.25L75.6875 14L66.5 8.75V19.25Z" fill="#191414"/>
<path d="M99 9L107 13.619V9.5H109V19.5H107V15.381L99 20V9Z" fill="#B2B2B2"/>
<path d="M129.5 10.5H134V12L137.5 10L134 8V9.5H129.5C127 9.5 125 11.5 125 14C125 14.6 125.1 15.2 125.4 15.8L126.3 15.3C126.1 14.9 126 14.5 126 14C126 12.1 127.6 10.5 129.5 10.5ZM138.6 12.2L137.7 12.7C137.9 13.1 138 13.5 138 14C138 15.9 136.4 17.5 134.5 17.5H130V16L126.5 18L130 20V18.5H134.5C137 18.5 139 16.5 139 14C139 13.4 138.9 12.8 138.6 12.2Z" fill="#B2B2B2"/>
</svg>
